<svg width="400" height="300" viewBox="0 0 400 300" fill="none" xmlns="http://www.w3.org/2000/svg">
  <!-- Empty favorites illustration -->
  <g id="empty-favorites">
    <!-- Large heart outline -->
    <path d="M200 240C200 240 80 170 80 110C80 80 95 60 120 60C140 60 160 70 200 110C240 70 260 60 280 60C305 60 320 80 320 110C320 170 200 240 200 240Z"
          stroke="#D1D5DB" stroke-width="3" fill="none" stroke-linecap="round" stroke-linejoin="round"/>

    <!-- Broken heart line (dash pattern) -->
    <path d="M200 110L200 240" stroke="#E5E7EB" stroke-width="2" stroke-dasharray="5,5" stroke-linecap="round"/>

    <!-- Small decorative hearts -->
    <path d="M100 80C100 80 90 75 90 68C90 65 92 63 95 63C97 63 99 64 100 67C101 64 103 63 105 63C108 63 110 65 110 68C110 75 100 80 100 80Z"
          fill="#E5E7EB" opacity="0.6"/>

    <path d="M300 90C300 90 290 85 290 78C290 75 292 73 295 73C297 73 299 74 300 77C301 74 303 73 305 73C308 73 310 75 310 78C310 85 300 90 300 90Z"
          fill="#E5E7EB" opacity="0.6"/>

    <path d="M150 230C150 230 145 227 145 223C145 221 146 220 148 220C149 220 150 221 150 222C150 221 151 220 152 220C154 220 155 221 155 223C155 227 150 230 150 230Z"
          fill="#E5E7EB" opacity="0.6"/>
  </g>

  <!-- Text -->
  <text x="200" y="270" font-family="Arial, sans-serif" font-size="18" fill="#9CA3AF" text-anchor="middle" font-weight="500">No favorites yet</text>
  <text x="200" y="290" font-family="Arial, sans-serif" font-size="14" fill="#D1D5DB" text-anchor="middle">Save your favorite restaurants here</text>
</svg>
